<svg version="1.1" id="Layer_1" xmlns="http://www.w3.org/2000/svg" xmlns:xlink="http://www.w3.org/1999/xlink" x="0px" y="0px"
	 width="100%" viewBox="0 0 1256 370" enable-background="new 0 0 1256 370" xml:space="preserve">
<path fill="#020202" opacity="1.000000" stroke="none" 
	d="
M896.000000,371.000000 
	C597.333374,371.000000 299.166779,371.000000 1.000120,371.000000 
	C1.000080,247.666748 1.000080,124.333481 1.000040,1.000170 
	C419.666504,1.000113 838.333008,1.000113 1256.999634,1.000057 
	C1256.999756,124.333160 1256.999756,247.666321 1256.999878,370.999756 
	C1136.833374,371.000000 1016.666687,371.000000 896.000000,371.000000 
M1047.362671,173.196609 
	C1047.904663,173.120499 1048.446655,173.044403 1049.909912,173.161682 
	C1073.344849,173.161682 1096.779785,173.161682 1121.471313,173.161682 
	C1119.784302,165.051773 1119.007568,157.547577 1116.618164,150.597794 
	C1111.211670,134.871582 1099.894287,124.822136 1083.515991,122.157036 
	C1059.680542,118.278503 1037.399902,122.143730 1022.023621,142.701019 
	C1008.686340,160.532303 1007.879944,181.095230 1014.654846,201.791107 
	C1020.095886,218.412247 1031.891357,229.005508 1048.539307,234.263824 
	C1063.616455,239.025986 1078.553955,237.855453 1093.141357,232.583252 
	C1103.652222,228.784348 1112.494629,222.330093 1118.879272,212.927902 
	C1119.521606,211.982010 1119.653931,210.689896 1120.479614,208.157440 
	C1100.272827,221.652161 1080.631592,225.248978 1061.032104,211.829468 
	C1048.006470,202.911026 1043.111572,189.030716 1041.967896,173.502640 
	C1044.094727,173.272247 1045.554077,173.114151 1047.362671,173.196609 
M162.743652,181.193619 
	C161.548309,186.267517 158.638702,187.393066 154.149521,184.946732 
	C153.571655,184.631836 152.946884,184.371613 152.313507,184.194672 
	C137.208206,179.975189 122.089294,175.921814 106.127815,178.146301 
	C92.003410,180.114777 82.025879,188.602280 79.141388,201.246155 
	C76.474075,212.938004 84.440117,223.489746 95.660080,223.198502 
	C102.554482,223.019516 106.952225,219.002411 110.605179,213.744537 
	C115.543549,206.636536 122.048264,201.708054 130.594955,199.857773 
	C138.423370,198.162979 146.203781,198.402710 155.193893,200.520462 
	C146.102142,219.856628 138.035324,238.454926 128.680954,256.381378 
	C122.815834,267.621124 114.053726,276.552277 100.574425,279.239929 
	C99.073639,279.539215 98.045876,282.210785 96.798744,283.782166 
	C97.183342,284.168976 97.567940,284.555817 97.952530,284.942627 
	C119.860031,284.942627 141.767532,284.942627 163.980255,284.942627 
	C163.980255,283.099792 163.980255,281.559204 163.980255,280.056396 
	C141.423660,277.121460 138.425171,261.969635 142.893417,248.652069 
	C148.146576,232.995041 155.133057,217.919571 161.396500,202.521484 
	C163.133774,202.917633 164.116882,203.035614 165.023697,203.364136 
	C186.893326,211.287109 207.243378,222.054718 225.856583,236.034439 
	C228.362793,237.916763 231.484146,239.614502 232.917496,242.181274 
	C239.195007,253.422714 237.716202,274.140289 220.037079,279.134888 
	C216.445038,280.149658 215.910507,281.820160 217.217163,284.962463 
	C278.815948,284.962463 340.386353,284.962463 403.733795,284.962463 
	C402.158783,282.464264 401.432190,279.786407 400.105652,279.445953 
	C388.123810,276.370575 380.185394,263.793518 380.115295,249.714249 
	C380.018188,230.219330 380.075409,210.723328 380.163544,191.228241 
	C380.171448,189.480225 380.369202,187.321762 381.370331,186.063049 
	C385.073456,181.407227 388.664185,176.462494 393.192566,172.705688 
	C401.621399,165.713043 411.075745,165.414597 420.603882,170.843048 
	C424.358154,172.981949 427.892273,175.533554 431.736572,177.483276 
	C443.695282,183.548386 453.473694,178.446915 455.412018,165.301865 
	C457.669189,149.994766 447.010590,137.484940 431.578308,137.501587 
	C412.566925,137.522110 398.895966,147.116165 388.364929,162.067520 
	C385.847046,165.642273 383.688873,169.470413 381.365265,173.182007 
	C380.982239,173.104385 380.599213,173.026749 380.216187,172.949112 
	C380.216187,161.150986 380.216187,149.352875 380.216187,137.144073 
	C377.977203,137.453812 376.454651,137.434631 375.089081,137.888123 
	C357.420776,143.755615 339.763367,149.656876 322.149902,155.686081 
	C321.017883,156.073578 320.269257,157.581024 319.342285,158.567490 
	C320.517700,159.219055 321.625336,160.226257 322.879395,160.465271 
	C331.939972,162.192123 336.360748,166.170303 338.174103,175.216568 
	C338.986511,179.269608 339.324860,183.477692 339.349121,187.618515 
	C339.466248,207.613220 339.450989,227.609238 339.356934,247.604172 
	C339.341370,250.911499 338.988617,254.277222 338.297272,257.510254 
	C336.113800,267.721405 331.087158,276.116669 320.472137,278.930206 
	C310.825226,281.487152 303.661591,275.648987 298.079803,268.931030 
	C292.399750,262.094727 286.837524,254.736740 283.183929,246.714447 
	C268.025391,213.430420 253.569199,179.825806 238.933044,146.304886 
	C230.087875,126.046906 221.443466,105.700943 212.502411,85.485817 
	C211.833893,83.974358 209.600754,82.569847 207.909119,82.305672 
	C206.816467,82.135033 204.774506,83.869965 204.194366,85.202240 
	C190.384857,116.915901 176.716049,148.690826 162.743652,181.193619 
M611.596375,231.770340 
	C634.130859,238.311890 656.670044,240.190674 679.297180,232.108490 
	C709.479797,221.327515 712.782227,191.440323 703.397278,171.761078 
	C697.013367,158.375061 684.962830,151.556839 671.930542,146.439133 
	C659.403015,141.519684 646.470520,137.628479 633.959167,132.671783 
	C622.818481,128.258118 617.226929,118.258240 617.937195,105.950562 
	C618.576904,94.865822 625.925110,85.305527 637.066345,82.436737 
	C652.444092,78.477066 666.391174,81.893959 678.465210,92.293159 
	C687.019592,99.660919 692.298828,109.230934 696.090393,119.670464 
	C697.106445,122.467934 698.394775,123.896545 701.926758,122.575493 
	C701.555725,114.601410 700.549927,106.460091 700.974121,98.393959 
	C701.417969,89.951752 697.348206,85.560692 690.253723,82.775116 
	C689.633972,82.531799 689.015076,82.285927 688.401001,82.028893 
	C674.849121,76.356987 660.718506,74.129181 646.086853,74.999466 
	C632.650635,75.798645 619.761963,78.712677 608.218750,85.926384 
	C584.490295,100.755028 581.809082,137.160645 603.811584,154.281372 
	C612.039612,160.683807 622.099548,164.825729 631.557739,169.528625 
	C642.235718,174.838058 653.623596,178.854279 663.875916,184.847321 
	C673.845032,190.674820 677.261230,200.663498 675.132812,212.033829 
	C673.231140,222.192703 666.339050,227.807922 656.642883,229.987946 
	C643.601257,232.920181 631.502930,230.526993 620.677063,222.520248 
	C609.015747,213.895676 600.952515,202.459335 595.085449,189.358673 
	C593.983704,186.898468 592.874634,184.814987 589.409790,186.671143 
	C590.566650,199.322983 591.728760,212.032181 592.918457,225.043442 
	C598.982239,227.253372 604.900635,229.410339 611.596375,231.770340 
M475.346619,139.051086 
	C471.708588,140.692245 468.201904,142.818802 464.398285,143.848206 
	C459.929626,145.057617 458.833588,147.280991 460.600128,151.896393 
	C467.167053,151.896393 473.896423,151.896393 480.911987,151.896393 
	C480.911987,174.599594 480.802643,196.734879 480.959259,218.868256 
	C481.034607,229.515717 480.918427,240.239227 482.129150,250.785934 
	C483.809723,265.425018 488.937622,278.512390 504.611145,283.744141 
	C517.365417,288.001465 530.248535,287.339081 542.828552,282.854370 
	C552.366455,279.454224 559.822144,273.200806 565.191895,264.592163 
	C565.773804,263.659210 565.638489,262.278839 565.835815,261.105988 
	C564.661377,261.091919 563.474426,260.971344 562.317505,261.106873 
	C561.702820,261.178925 561.157959,261.734680 560.551514,262.004669 
	C545.069275,268.897156 530.765198,264.446625 525.047119,250.107376 
	C522.834229,244.558090 522.074280,238.127670 521.996277,232.081329 
	C521.667603,206.589996 521.843628,181.092133 521.847290,155.596649 
	C521.847473,154.487152 521.969177,153.377701 522.065002,151.744873 
	C533.295349,151.744873 544.192322,151.744873 554.984314,151.744873 
	C556.188354,144.388138 556.170654,144.366394 549.666748,144.366745 
	C540.552612,144.367264 531.438477,144.366867 521.734131,144.366867 
	C521.734131,128.976486 521.734131,113.935646 521.734131,99.099068 
	C517.939453,97.906418 515.983704,98.878189 514.501892,102.079247 
	C513.053345,105.208466 510.940582,108.075745 508.847748,110.853302 
	C500.000519,122.594917 488.644440,131.416000 475.346619,139.051086 
M753.898560,126.517113 
	C765.832581,121.093269 777.410522,114.593231 789.784485,110.499084 
	C808.118286,104.433037 826.870605,100.768158 845.331970,111.497101 
	C852.826721,115.852753 860.889038,113.482559 865.153748,106.979912 
	C869.883362,99.768227 869.181335,90.417755 862.307617,85.484390 
	C858.069824,82.442917 852.542480,80.257942 847.363281,79.647659 
	C832.782654,77.929543 818.570801,80.964417 805.840271,87.908905 
	C789.380005,96.887886 773.647034,107.199463 757.593872,116.925598 
	C755.720276,118.060760 753.802002,119.122070 751.080261,120.693451 
	C751.080261,110.212891 751.080261,100.816231 751.080261,91.419571 
	C750.634583,91.084198 750.188843,90.748833 749.743164,90.413467 
	C748.207214,91.640457 746.155151,92.561203 745.216614,94.142723 
	C737.448547,107.232025 727.685974,118.463120 714.716431,126.537926 
	C710.225891,129.333725 710.232239,132.600403 711.384583,136.881668 
	C714.144714,135.930573 716.554565,135.100189 719.428711,134.109802 
	C719.531433,136.286285 719.659119,137.747299 719.660400,139.208405 
	C719.674866,156.037231 719.547119,172.867386 719.728699,189.694275 
	C719.805725,196.829071 720.030151,204.027863 721.046997,211.073547 
	C723.301697,226.696732 732.573792,234.671646 748.410156,235.423569 
	C762.344299,236.085159 774.427734,232.348038 783.122131,220.723419 
	C784.152588,219.345627 784.657166,217.574585 785.994934,214.734650 
	C782.445618,216.132721 780.486877,216.985077 778.474731,217.683365 
	C767.708008,221.419678 757.515930,217.733826 753.773804,208.116852 
	C752.123413,203.875565 751.322388,199.056198 751.264893,194.485092 
	C751.000793,173.493973 751.092346,152.497574 751.216675,131.504013 
	C751.225830,129.958282 752.503723,128.420074 753.898560,126.517113 
M899.129639,199.633789 
	C902.128113,190.108826 902.726746,180.368286 901.698303,170.492325 
	C899.117920,145.713181 884.810242,128.170822 862.277466,122.759056 
	C847.679932,119.253113 833.140991,120.028252 819.041077,125.369385 
	C805.422241,130.528275 795.644348,139.963348 790.278748,153.473389 
	C784.708679,167.498184 784.194580,182.065125 787.791687,196.648712 
	C792.936768,217.507797 806.265015,230.165771 827.078430,235.382812 
	C856.675049,242.801468 889.622009,230.381927 899.129639,199.633789 
M916.315491,142.071793 
	C917.867737,145.659897 920.676697,149.218338 920.762207,152.841049 
	C921.217529,172.139435 921.399109,191.466095 920.823608,210.757553 
	C920.547729,220.004807 915.721985,227.087372 906.224365,230.142700 
	C905.051086,230.520157 904.307190,232.232422 903.364319,233.326157 
	C903.665894,233.761719 903.967468,234.197296 904.269043,234.632858 
	C906.050415,234.632858 907.831848,234.632858 909.613220,234.632858 
	C927.765259,234.632858 945.917236,234.632996 964.069275,234.632477 
	C965.234985,234.632431 966.467957,234.861710 967.545837,234.552597 
	C968.465637,234.288818 969.799805,233.466751 969.873413,232.776733 
	C969.960205,231.962936 969.069885,230.484497 968.291016,230.222488 
	C955.903992,226.055969 952.696472,216.401062 952.726929,204.699295 
	C952.758972,192.375977 953.184448,180.029999 952.569336,167.737396 
	C952.185913,160.074677 955.225403,154.688873 960.463196,149.870575 
	C968.199890,142.753510 976.533020,142.008194 985.446045,147.656296 
	C987.971252,149.256516 990.447266,150.999588 993.143433,152.251465 
	C999.376587,155.145554 1005.230591,153.895370 1008.211365,149.046188 
	C1011.950317,142.963593 1011.495178,136.552704 1008.483215,130.446289 
	C1005.640747,124.683632 1000.752136,121.435951 994.173950,121.121155 
	C982.682251,120.571220 972.826965,124.472519 965.078369,132.851639 
	C960.677917,137.610214 957.088013,143.118271 952.628601,148.948349 
	C952.628601,139.308350 952.628601,130.277740 952.628601,120.312874 
	C936.255615,125.440834 920.678345,130.306473 904.198120,136.823959 
	C909.144226,138.863052 912.434204,140.219406 916.315491,142.071793 
M631.987183,285.901886 
	C631.987183,271.822418 631.987183,257.742950 631.987183,243.509232 
	C628.603882,243.509232 626.002747,243.509232 623.358521,243.509232 
	C620.868225,254.531906 618.158569,265.225159 616.148743,276.048370 
	C615.319580,280.513824 613.730408,282.142487 609.030762,280.772583 
	C606.283020,268.412598 603.506348,255.922440 600.693848,243.271027 
	C599.543579,243.271027 598.703064,243.390320 597.907593,243.251526 
	C592.979919,242.391830 591.719421,244.516907 591.866760,249.287857 
	C592.216370,260.607208 591.967163,271.944458 592.017090,283.274261 
	C592.025940,285.279785 591.213806,287.762756 594.855957,287.830261 
	C598.514343,287.898010 598.861023,285.804169 598.822327,283.007690 
	C598.755005,278.136749 598.803589,273.264221 598.803589,268.392365 
	C600.274292,271.147461 600.979980,273.963165 601.655640,276.786041 
	C604.330872,287.963776 604.327759,287.839478 615.723206,287.875122 
	C618.978394,287.885315 620.424133,286.892700 621.038086,283.669067 
	C622.271240,277.194366 623.877380,270.790649 625.329590,264.357666 
	C625.969727,270.640747 625.950012,276.800140 625.975769,282.959290 
	C625.997559,288.167938 626.648865,288.579193 631.987183,285.901886 
M859.960938,282.496948 
	C859.960938,286.487213 859.731995,290.497620 860.079590,294.457367 
	C860.209106,295.933197 861.685974,297.290802 862.548523,298.702271 
	C863.950867,297.225006 865.984009,295.966095 866.590698,294.213409 
	C867.297241,292.172150 866.755615,289.698822 866.755615,287.813080 
	C872.951538,287.813080 878.709778,287.987854 884.451355,287.754150 
	C888.552063,287.587189 891.188171,285.710022 891.039001,280.945496 
	C890.836121,274.468719 890.892273,267.977783 891.049866,261.498077 
	C891.138611,257.849731 889.277893,255.313797 886.094604,255.161407 
	C877.539795,254.751801 868.952454,255.021545 859.960938,255.021545 
	C859.960938,264.264130 859.960938,272.881042 859.960938,282.496948 
M767.083069,286.857452 
	C768.889343,287.138275 770.695618,287.419128 773.021973,287.780823 
	C773.021973,278.085876 773.158447,269.289185 772.957520,260.500183 
	C772.872314,256.774658 770.408142,254.983337 766.695007,254.983978 
	C760.369446,254.985077 754.039551,255.127121 747.719788,254.935944 
	C743.195374,254.799088 742.207458,256.731110 743.667969,261.147675 
	C751.084167,261.147675 758.495483,261.147675 766.088318,261.147675 
	C765.965210,263.432190 765.870605,265.186340 765.758789,267.261200 
	C760.389771,267.261200 755.413574,267.428009 750.454956,267.204803 
	C746.922791,267.045776 742.815796,267.329590 742.335510,270.944122 
	C741.694336,275.769684 742.831116,280.860626 743.492676,285.798981 
	C743.593323,286.550110 745.275330,287.678894 746.181641,287.638519 
	C752.916321,287.338348 759.639771,286.787048 767.083069,286.857452 
M677.720947,274.619263 
	C681.156067,273.716583 682.447571,271.522003 682.067444,268.001404 
	C681.819153,265.701233 681.959717,263.348938 682.048401,261.024658 
	C682.211365,256.754364 679.923401,255.004730 675.955933,254.984573 
	C669.804749,254.953339 663.653259,254.958939 657.501953,254.984665 
	C652.989197,255.003525 650.922974,257.359558 650.977966,261.818939 
	C651.039551,266.805817 650.989441,271.794006 651.003601,276.781555 
	C651.017151,281.552643 656.294495,287.590546 660.979858,287.780914 
	C666.288513,287.996613 671.629822,288.046112 676.919678,287.659271 
	C678.301086,287.558289 679.544434,285.568115 680.851196,284.445618 
	C679.527649,283.363251 678.279419,281.481171 676.866455,281.348114 
	C672.583374,280.944824 668.234863,281.294800 663.914917,281.206329 
	C660.018799,281.126495 657.937500,279.242645 658.210876,274.681183 
	C664.591125,274.681183 670.718384,274.681183 677.720947,274.619263 
M1078.448730,282.934845 
	C1077.042725,282.345581 1075.659180,281.323700 1074.226318,281.248810 
	C1070.080566,281.032227 1065.912231,281.294037 1061.757812,281.181976 
	C1058.078125,281.082764 1056.089355,279.111603 1055.836182,274.781372 
	C1059.686279,274.781372 1063.297729,274.799377 1066.908936,274.778168 
	C1080.479004,274.698517 1080.412842,274.695404 1080.069946,261.130341 
	C1079.965210,256.985931 1077.987915,255.040131 1074.026978,254.998154 
	C1067.706421,254.931168 1061.382812,254.885544 1055.064209,255.016556 
	C1051.184692,255.096954 1048.979370,257.147278 1048.980957,261.209198 
	C1048.983032,266.199341 1049.152832,271.198029 1048.910767,276.176514 
	C1048.761841,279.240417 1049.790649,281.337585 1051.901733,283.537994 
	C1054.831543,286.591827 1057.803345,288.368256 1062.240845,287.902771 
	C1066.355835,287.471130 1070.553589,287.643677 1074.705078,287.805542 
	C1077.765991,287.924927 1079.033813,286.691986 1078.448730,282.934845 
M959.270996,287.411804 
	C967.574158,287.539734 975.900818,288.041718 984.163330,287.522461 
	C986.133545,287.398621 988.463928,284.136719 989.565063,281.813995 
	C990.472412,279.900116 989.747742,277.237762 989.853149,274.911926 
	C989.975281,272.214386 988.801758,271.343903 986.088196,270.893066 
	C979.018860,269.718536 972.037292,268.015381 965.292114,266.580780 
	C965.292114,264.522156 965.292114,262.927765 965.292114,260.985870 
	C973.322510,260.985870 981.090210,260.985870 989.009766,260.985870 
	C989.584412,258.124969 991.142883,255.110336 986.523987,255.021149 
	C979.037781,254.876556 971.518494,254.627411 964.075867,255.215454 
	C962.001770,255.379318 958.986755,258.029236 958.450928,260.074921 
	C957.522827,263.618439 958.193237,267.580658 958.193237,271.407074 
	C966.735413,273.170288 974.740662,274.822693 982.965332,276.520386 
	C982.888672,278.073029 982.820679,279.449982 982.731934,281.247375 
	C974.421814,281.247375 966.497681,281.247375 958.025513,281.247375 
	C958.219299,283.465729 958.370850,285.200531 959.270996,287.411804 
M940.991577,272.485840 
	C940.994019,268.824127 940.994507,265.162415 940.999390,261.500702 
	C941.005066,257.208893 938.712158,255.077621 934.572937,255.012543 
	C928.248352,254.913086 921.919922,254.917831 915.595215,255.013214 
	C911.974060,255.067825 909.871094,256.681458 909.953613,260.723389 
	C910.096436,267.712311 910.078308,274.708435 909.938477,281.697754 
	C909.859253,285.657074 911.866028,287.602936 915.494995,287.712891 
	C921.981445,287.909332 928.488342,288.009918 934.965637,287.704193 
	C938.510132,287.536896 941.192627,285.753754 940.980957,281.459412 
	C940.850037,278.803070 940.979187,276.133881 940.991577,272.485840 
M1019.018250,274.439880 
	C1019.018250,270.015167 1019.018250,265.590424 1019.018250,260.711151 
	C1023.563599,260.711151 1027.469238,260.711151 1031.238892,260.711151 
	C1032.355591,256.426056 1031.215576,254.530304 1026.951172,254.938492 
	C1024.380615,255.184509 1021.767395,254.983719 1019.208008,254.983719 
	C1018.838989,251.380157 1019.859375,247.017349 1015.102905,247.590378 
	C1013.456970,247.788666 1012.248230,251.615799 1010.839783,253.785400 
	C1010.039062,255.450455 1008.268188,256.906006 1008.233765,258.401489 
	C1008.205811,259.613098 1010.265991,260.872772 1012.011658,262.779114 
	C1012.011658,268.188782 1012.082886,274.673767 1011.987000,281.156250 
	C1011.921753,285.565887 1014.426453,287.456421 1018.341614,287.748383 
	C1021.653625,287.995361 1025.038086,288.090729 1028.309204,287.649841 
	C1029.572876,287.479462 1030.612427,285.646332 1031.754028,284.570801 
	C1030.612183,283.448883 1029.598022,281.578766 1028.302612,281.357727 
	C1025.430420,280.867584 1022.416931,281.205048 1019.018250,281.205048 
	C1019.018250,278.990509 1019.018250,277.202942 1019.018250,274.439880 
M703.897522,254.199692 
	C700.394104,254.931076 699.039917,256.940460 700.380859,260.765381 
	C701.342529,260.925720 702.545349,261.126282 703.975098,261.364685 
	C703.975098,265.585907 704.064758,269.568665 703.959167,273.546234 
	C703.556702,288.707977 703.668701,287.812073 718.971069,287.801666 
	C721.355225,287.800049 723.097290,287.614929 723.044373,284.342255 
	C722.988220,280.869110 720.854492,281.205933 718.685303,281.186768 
	C716.095520,281.163879 713.505249,281.181366 711.113403,281.181366 
	C711.113403,274.046814 711.113403,267.648804 711.113403,260.885498 
	C715.241699,260.885498 719.013855,260.885498 723.046326,260.885498 
	C723.127136,250.237686 714.465637,257.624939 710.977600,254.026917 
	C710.591614,251.449905 711.310059,247.120819 706.379700,247.369598 
	C702.412415,247.569763 704.490479,251.192062 703.897522,254.199692 
M791.959412,259.505249 
	C791.959412,264.159332 792.022400,268.814392 791.947876,273.467285 
	C791.706055,288.570007 791.117126,287.902679 806.753052,287.794189 
	C808.934631,287.779053 811.038513,288.039276 811.048645,284.584961 
	C811.058105,281.334534 809.339722,281.116180 806.949951,281.162750 
	C804.343933,281.213593 801.736084,281.174286 798.759460,281.174286 
	C798.759460,276.200592 798.761658,271.751129 798.758911,267.301666 
	C798.754944,260.985474 799.053955,254.644623 798.549561,248.368484 
	C798.403320,246.548553 795.950745,244.913971 794.555420,243.194382 
	C793.696472,244.808411 792.286316,246.359726 792.094055,248.049637 
	C791.701904,251.496277 791.965820,255.017532 791.959412,259.505249 
M1098.979858,277.439331 
	C1098.980591,279.435638 1099.095337,281.440125 1098.953125,283.426178 
	C1098.777954,285.868500 1099.119385,287.737274 1102.135376,287.844055 
	C1105.503784,287.963318 1105.836304,285.692841 1105.846680,283.197998 
	C1105.864502,278.872864 1105.821899,274.547485 1105.819580,270.222229 
	C1105.815918,263.171753 1107.408447,261.590210 1114.255615,260.900726 
	C1115.505005,260.774933 1116.595947,259.075012 1117.759888,258.101715 
	C1116.612793,257.063873 1115.619385,255.449341 1114.290039,255.094910 
	C1110.075317,253.971161 1105.757324,257.541901 1101.359497,255.153275 
	C1101.213501,255.073959 1099.140747,257.297607 1099.092041,258.493652 
	C1098.848022,264.473206 1098.980225,270.468140 1098.979858,277.439331 
z"/>
<path fill="#F9F9F9" opacity="1.000000" stroke="none" 
	d="
M162.882629,180.824097 
	C176.716049,148.690826 190.384857,116.915901 204.194366,85.202240 
	C204.774506,83.869965 206.816467,82.135033 207.909119,82.305672 
	C209.600754,82.569847 211.833893,83.974358 212.502411,85.485817 
	C221.443466,105.700943 230.087875,126.046906 238.933044,146.304886 
	C253.569199,179.825806 268.025391,213.430420 283.183929,246.714447 
	C286.837524,254.736740 292.399750,262.094727 298.079803,268.931030 
	C303.661591,275.648987 310.825226,281.487152 320.472137,278.930206 
	C331.087158,276.116669 336.113800,267.721405 338.297272,257.510254 
	C338.988617,254.277222 339.341370,250.911499 339.356934,247.604172 
	C339.450989,227.609238 339.466248,207.613220 339.349121,187.618515 
	C339.324860,183.477692 338.986511,179.269608 338.174103,175.216568 
	C336.360748,166.170303 331.939972,162.192123 322.879395,160.465271 
	C321.625336,160.226257 320.517700,159.219055 319.342285,158.567474 
	C320.269257,157.581024 321.017883,156.073578 322.149902,155.686081 
	C339.763367,149.656876 357.420776,143.755615 375.089081,137.888123 
	C376.454651,137.434631 377.977203,137.453812 380.216187,137.144073 
	C380.216187,149.352875 380.216187,161.150986 380.216187,172.949112 
	C380.599213,173.026749 380.982239,173.104385 381.365265,173.182007 
	C383.688873,169.470413 385.847046,165.642273 388.364929,162.067520 
	C398.895966,147.116165 412.566925,137.522110 431.578308,137.501587 
	C447.010590,137.484940 457.669189,149.994766 455.412018,165.301865 
	C453.473694,178.446915 443.695282,183.548386 431.736572,177.483276 
	C427.892273,175.533554 424.358154,172.981949 420.603882,170.843048 
	C411.075745,165.414597 401.621399,165.713043 393.192566,172.705688 
	C388.664185,176.462494 385.073456,181.407227 381.370331,186.063049 
	C380.369202,187.321762 380.171448,189.480225 380.163544,191.228241 
	C380.075409,210.723328 380.018188,230.219330 380.115295,249.714249 
	C380.185394,263.793518 388.123810,276.370575 400.105652,279.445953 
	C401.432190,279.786407 402.158783,282.464264 403.733795,284.962463 
	C340.386353,284.962463 278.815948,284.962463 217.217163,284.962463 
	C215.910507,281.820160 216.445038,280.149658 220.037079,279.134888 
	C237.716202,274.140289 239.195007,253.422714 232.917496,242.181274 
	C231.484146,239.614502 228.362793,237.916763 225.856583,236.034439 
	C207.243378,222.054718 186.893326,211.287109 165.023697,203.364136 
	C164.116882,203.035614 163.133774,202.917633 161.396500,202.521484 
	C155.133057,217.919571 148.146576,232.995041 142.893417,248.652069 
	C138.425171,261.969635 141.423660,277.121460 163.980255,280.056396 
	C163.980255,281.559204 163.980255,283.099792 163.980255,284.942627 
	C141.767532,284.942627 119.860031,284.942627 97.952530,284.942627 
	C97.567940,284.555817 97.183342,284.168976 96.798744,283.782166 
	C98.045876,282.210785 99.073639,279.539215 100.574425,279.239929 
	C114.053726,276.552277 122.815834,267.621124 128.680954,256.381378 
	C138.035324,238.454926 146.102142,219.856628 155.193893,200.520462 
	C146.203781,198.402710 138.423370,198.162979 130.594955,199.857773 
	C122.048264,201.708054 115.543549,206.636536 110.605179,213.744537 
	C106.952225,219.002411 102.554482,223.019516 95.660080,223.198502 
	C84.440117,223.489746 76.474075,212.938004 79.141388,201.246155 
	C82.025879,188.602280 92.003410,180.114777 106.127815,178.146301 
	C122.089294,175.921814 137.208206,179.975189 152.313507,184.194672 
	C152.946884,184.371613 153.571655,184.631836 154.149521,184.946732 
	C158.638702,187.393066 161.548309,186.267517 162.882629,180.824097 
M181.904510,155.313324 
	C177.074478,166.572479 172.244446,177.831635 167.367554,189.200012 
	C168.175095,189.877350 168.715469,190.552307 169.417953,190.887527 
	C188.548920,200.016678 206.110306,211.515289 222.091461,225.455200 
	C223.250763,226.466415 225.104218,226.681839 227.467773,227.585800 
	C214.805435,197.104736 202.572571,167.657501 189.808273,136.931015 
	C186.871857,143.747284 184.532822,149.176895 181.904510,155.313324 
z"/>
<path fill="#F8F8F8" opacity="1.000000" stroke="none" 
	d="
M611.207703,231.668823 
	C604.900635,229.410339 598.982239,227.253372 592.918457,225.043442 
	C591.728760,212.032181 590.566650,199.322983 589.409790,186.671143 
	C592.874634,184.814987 593.983704,186.898468 595.085449,189.358673 
	C600.952515,202.459335 609.015747,213.895676 620.677063,222.520248 
	C631.502930,230.526993 643.601257,232.920181 656.642883,229.987946 
	C666.339050,227.807922 673.231140,222.192703 675.132812,212.033829 
	C677.261230,200.663498 673.845032,190.674820 663.875916,184.847321 
	C653.623596,178.854279 642.235718,174.838058 631.557739,169.528625 
	C622.099548,164.825729 612.039612,160.683807 603.811584,154.281372 
	C581.809082,137.160645 584.490295,100.755028 608.218750,85.926384 
	C619.761963,78.712677 632.650635,75.798645 646.086853,74.999466 
	C660.718506,74.129181 674.849121,76.356987 688.401001,82.028893 
	C689.015076,82.285927 689.633972,82.531799 690.253723,82.775116 
	C697.348206,85.560692 701.417969,89.951752 700.974121,98.393959 
	C700.549927,106.460091 701.555725,114.601410 701.926758,122.575493 
	C698.394775,123.896545 697.106445,122.467934 696.090393,119.670464 
	C692.298828,109.230934 687.019592,99.660919 678.465210,92.293159 
	C666.391174,81.893959 652.444092,78.477066 637.066345,82.436737 
	C625.925110,85.305527 618.576904,94.865822 617.937195,105.950562 
	C617.226929,118.258240 622.818481,128.258118 633.959167,132.671783 
	C646.470520,137.628479 659.403015,141.519684 671.930542,146.439133 
	C684.962830,151.556839 697.013367,158.375061 703.397278,171.761078 
	C712.782227,191.440323 709.479797,221.327515 679.297180,232.108490 
	C656.670044,240.190674 634.130859,238.311890 611.207703,231.668823 
z"/>
<path fill="#F9F9F9" opacity="1.000000" stroke="none" 
	d="
M475.674011,138.876007 
	C488.644440,131.416000 500.000519,122.594917 508.847748,110.853302 
	C510.940582,108.075745 513.053345,105.208466 514.501892,102.079247 
	C515.983704,98.878189 517.939453,97.906418 521.734131,99.099068 
	C521.734131,113.935646 521.734131,128.976486 521.734131,144.366867 
	C531.438477,144.366867 540.552612,144.367264 549.666748,144.366745 
	C556.170654,144.366394 556.188354,144.388138 554.984314,151.744873 
	C544.192322,151.744873 533.295349,151.744873 522.065002,151.744873 
	C521.969177,153.377701 521.847473,154.487152 521.847290,155.596649 
	C521.843628,181.092133 521.667603,206.589996 521.996277,232.081329 
	C522.074280,238.127670 522.834229,244.558090 525.047119,250.107376 
	C530.765198,264.446625 545.069275,268.897156 560.551514,262.004669 
	C561.157959,261.734680 561.702820,261.178925 562.317505,261.106873 
	C563.474426,260.971344 564.661377,261.091919 565.835815,261.105988 
	C565.638489,262.278839 565.773804,263.659210 565.191895,264.592163 
	C559.822144,273.200806 552.366455,279.454224 542.828552,282.854370 
	C530.248535,287.339081 517.365417,288.001465 504.611145,283.744141 
	C488.937622,278.512390 483.809723,265.425018 482.129150,250.785934 
	C480.918427,240.239227 481.034607,229.515717 480.959259,218.868256 
	C480.802643,196.734879 480.911987,174.599594 480.911987,151.896393 
	C473.896423,151.896393 467.167053,151.896393 460.600128,151.896393 
	C458.833588,147.280991 459.929626,145.057617 464.398285,143.848206 
	C468.201904,142.818802 471.708588,140.692245 475.674011,138.876007 
z"/>
<path fill="#F9F9F9" opacity="1.000000" stroke="none" 
	d="
M753.545166,126.697739 
	C752.503723,128.420074 751.225830,129.958282 751.216675,131.504013 
	C751.092346,152.497574 751.000793,173.493973 751.264893,194.485092 
	C751.322388,199.056198 752.123413,203.875565 753.773804,208.116852 
	C757.515930,217.733826 767.708008,221.419678 778.474731,217.683365 
	C780.486877,216.985077 782.445618,216.132721 785.994934,214.734650 
	C784.657166,217.574585 784.152588,219.345627 783.122131,220.723419 
	C774.427734,232.348038 762.344299,236.085159 748.410156,235.423569 
	C732.573792,234.671646 723.301697,226.696732 721.046997,211.073547 
	C720.030151,204.027863 719.805725,196.829071 719.728699,189.694275 
	C719.547119,172.867386 719.674866,156.037231 719.660400,139.208405 
	C719.659119,137.747299 719.531433,136.286285 719.428711,134.109802 
	C716.554565,135.100189 714.144714,135.930573 711.384583,136.881668 
	C710.232239,132.600403 710.225891,129.333725 714.716431,126.537926 
	C727.685974,118.463120 737.448547,107.232025 745.216614,94.142723 
	C746.155151,92.561203 748.207214,91.640457 749.743164,90.413467 
	C750.188843,90.748833 750.634583,91.084198 751.080261,91.419571 
	C751.080261,100.816231 751.080261,110.212891 751.080261,120.693451 
	C753.802002,119.122070 755.720276,118.060760 757.593872,116.925598 
	C773.647034,107.199463 789.380005,96.887886 805.840271,87.908905 
	C818.570801,80.964417 832.782654,77.929543 847.363281,79.647659 
	C852.542480,80.257942 858.069824,82.442917 862.307617,85.484390 
	C869.181335,90.417755 869.883362,99.768227 865.153748,106.979912 
	C860.889038,113.482559 852.826721,115.852753 845.331970,111.497101 
	C826.870605,100.768158 808.118286,104.433037 789.784485,110.499084 
	C777.410522,114.593231 765.832581,121.093269 753.545166,126.697739 
z"/>
<path fill="#F9F9F9" opacity="1.000000" stroke="none" 
	d="
M899.067749,200.026932 
	C889.622009,230.381927 856.675049,242.801468 827.078430,235.382812 
	C806.265015,230.165771 792.936768,217.507797 787.791687,196.648712 
	C784.194580,182.065125 784.708679,167.498184 790.278748,153.473389 
	C795.644348,139.963348 805.422241,130.528275 819.041077,125.369385 
	C833.140991,120.028252 847.679932,119.253113 862.277466,122.759056 
	C884.810242,128.170822 899.117920,145.713181 901.698303,170.492325 
	C902.726746,180.368286 902.128113,190.108826 899.067749,200.026932 
M817.874573,188.396301 
	C818.430115,198.931183 820.071106,209.237457 824.949158,218.737701 
	C828.539856,225.730835 833.872437,230.748093 842.013611,231.758224 
	C852.873535,233.105698 860.635193,227.723694 864.859619,215.370499 
	C872.173950,193.981552 871.721375,172.152115 866.826843,150.439682 
	C865.450012,144.332199 862.478943,138.114197 858.690979,133.121521 
	C851.598083,123.772995 837.692322,123.315178 829.811523,132.003693 
	C826.153442,136.036743 823.382629,141.299622 821.548645,146.479095 
	C816.860718,159.718781 817.097351,173.591171 817.874573,188.396301 
z"/>
<path fill="#F9F9F9" opacity="1.000000" stroke="none" 
	d="
M1047.013428,172.956070 
	C1045.554077,173.114151 1044.094727,173.272247 1041.967896,173.502640 
	C1043.111572,189.030716 1048.006470,202.911026 1061.032104,211.829468 
	C1080.631592,225.248978 1100.272827,221.652161 1120.479614,208.157440 
	C1119.653931,210.689896 1119.521606,211.982010 1118.879272,212.927902 
	C1112.494629,222.330093 1103.652222,228.784348 1093.141357,232.583252 
	C1078.553955,237.855453 1063.616455,239.025986 1048.539307,234.263824 
	C1031.891357,229.005508 1020.095886,218.412247 1014.654846,201.791107 
	C1007.879944,181.095230 1008.686340,160.532303 1022.023621,142.701019 
	C1037.399902,122.143730 1059.680542,118.278503 1083.515991,122.157036 
	C1099.894287,124.822136 1111.211670,134.871582 1116.618164,150.597794 
	C1119.007568,157.547577 1119.784302,165.051773 1121.471313,173.161682 
	C1096.779785,173.161682 1073.344849,173.161682 1049.303955,172.848206 
	C1048.136597,172.675171 1047.574951,172.815628 1047.013428,172.956070 
M1065.199341,168.192215 
	C1066.470703,167.873337 1067.742065,167.554443 1069.904053,167.039490 
	C1075.973511,166.713165 1082.052490,166.496384 1088.105347,165.976974 
	C1089.473999,165.859512 1090.752197,164.689651 1092.783813,163.994553 
	C1095.591797,161.936676 1095.480713,161.272034 1091.374146,157.186890 
	C1088.995239,150.360245 1087.596924,142.965302 1084.037598,136.822662 
	C1076.096069,123.117157 1059.785278,122.491898 1050.302856,135.130951 
	C1043.326538,144.429703 1042.083740,155.554977 1041.729126,166.763474 
	C1041.708252,167.421448 1043.165771,168.126190 1044.246094,169.334061 
	C1045.174438,169.081421 1046.102783,168.828781 1047.903076,168.268356 
	C1051.600708,168.174530 1055.298218,168.080719 1059.381348,168.503235 
	C1060.273438,168.272888 1061.165649,168.042557 1062.715576,167.524231 
	C1063.430542,167.534119 1064.145508,167.544006 1065.199341,168.192215 
z"/>
<path fill="#F7F7F7" opacity="1.000000" stroke="none" 
	d="
M916.019836,141.823761 
	C912.434204,140.219406 909.144226,138.863052 904.198120,136.823959 
	C920.678345,130.306473 936.255615,125.440834 952.628601,120.312874 
	C952.628601,130.277740 952.628601,139.308350 952.628601,148.948349 
	C957.088013,143.118271 960.677917,137.610214 965.078369,132.851639 
	C972.826965,124.472519 982.682251,120.571220 994.173950,121.121155 
	C1000.752136,121.435951 1005.640747,124.683632 1008.483215,130.446289 
	C1011.495178,136.552704 1011.950317,142.963593 1008.211365,149.046188 
	C1005.230591,153.895370 999.376587,155.145554 993.143433,152.251465 
	C990.447266,150.999588 987.971252,149.256516 985.446045,147.656296 
	C976.533020,142.008194 968.199890,142.753510 960.463196,149.870575 
	C955.225403,154.688873 952.185913,160.074677 952.569336,167.737396 
	C953.184448,180.029999 952.758972,192.375977 952.726929,204.699295 
	C952.696472,216.401062 955.903992,226.055969 968.291016,230.222488 
	C969.069885,230.484497 969.960205,231.962936 969.873413,232.776733 
	C969.799805,233.466751 968.465637,234.288818 967.545837,234.552597 
	C966.467957,234.861710 965.234985,234.632431 964.069275,234.632477 
	C945.917236,234.632996 927.765259,234.632858 909.613220,234.632858 
	C907.831848,234.632858 906.050415,234.632858 904.269043,234.632858 
	C903.967468,234.197296 903.665894,233.761719 903.364319,233.326157 
	C904.307190,232.232422 905.051086,230.520157 906.224365,230.142700 
	C915.721985,227.087372 920.547729,220.004807 920.823608,210.757553 
	C921.399109,191.466095 921.217529,172.139435 920.762207,152.841049 
	C920.676697,149.218338 917.867737,145.659897 916.019836,141.823761 
z"/>
<path fill="#F4F4F4" opacity="1.000000" stroke="none" 
	d="
M631.881104,286.331787 
	C626.648865,288.579193 625.997559,288.167938 625.975769,282.959290 
	C625.950012,276.800140 625.969727,270.640747 625.329590,264.357666 
	C623.877380,270.790649 622.271240,277.194366 621.038086,283.669067 
	C620.424133,286.892700 618.978394,287.885315 615.723206,287.875122 
	C604.327759,287.839478 604.330872,287.963776 601.655640,276.786041 
	C600.979980,273.963165 600.274292,271.147461 598.803589,268.392365 
	C598.803589,273.264221 598.755005,278.136749 598.822327,283.007690 
	C598.861023,285.804169 598.514343,287.898010 594.855957,287.830261 
	C591.213806,287.762756 592.025940,285.279785 592.017090,283.274261 
	C591.967163,271.944458 592.216370,260.607208 591.866760,249.287857 
	C591.719421,244.516907 592.979919,242.391830 597.907593,243.251526 
	C598.703064,243.390320 599.543579,243.271027 600.693848,243.271027 
	C603.506348,255.922440 606.283020,268.412598 609.030762,280.772583 
	C613.730408,282.142487 615.319580,280.513824 616.148743,276.048370 
	C618.158569,265.225159 620.868225,254.531906 623.358521,243.509232 
	C626.002747,243.509232 628.603882,243.509232 631.987183,243.509232 
	C631.987183,257.742950 631.987183,271.822418 631.881104,286.331787 
z"/>
<path fill="#F2F2F2" opacity="1.000000" stroke="none" 
	d="
M859.960938,281.997437 
	C859.960938,272.881042 859.960938,264.264130 859.960938,255.021545 
	C868.952454,255.021545 877.539795,254.751801 886.094604,255.161407 
	C889.277893,255.313797 891.138611,257.849731 891.049866,261.498077 
	C890.892273,267.977783 890.836121,274.468719 891.039001,280.945496 
	C891.188171,285.710022 888.552063,287.587189 884.451355,287.754150 
	C878.709778,287.987854 872.951538,287.813080 866.755615,287.813080 
	C866.755615,289.698822 867.297241,292.172150 866.590698,294.213409 
	C865.984009,295.966095 863.950867,297.225006 862.548523,298.702271 
	C861.685974,297.290802 860.209106,295.933197 860.079590,294.457367 
	C859.731995,290.497620 859.960938,286.487213 859.960938,281.997437 
M872.877686,281.195892 
	C876.469421,281.195892 880.061157,281.195892 883.748657,281.195892 
	C883.748657,274.473175 883.748657,268.258972 883.748657,262.115845 
	C877.919250,262.115845 872.368774,262.115845 866.773376,262.115845 
	C866.773376,266.430359 866.994446,270.410461 866.711853,274.354492 
	C866.422485,278.393311 867.889038,280.676331 872.877686,281.195892 
z"/>
<path fill="#F4F4F4" opacity="1.000000" stroke="none" 
	d="
M766.724915,286.585999 
	C759.639771,286.787048 752.916321,287.338348 746.181641,287.638519 
	C745.275330,287.678894 743.593323,286.550110 743.492676,285.798981 
	C742.831116,280.860626 741.694336,275.769684 742.335510,270.944122 
	C742.815796,267.329590 746.922791,267.045776 750.454956,267.204803 
	C755.413574,267.428009 760.389771,267.261200 765.758789,267.261200 
	C765.870605,265.186340 765.965210,263.432190 766.088318,261.147675 
	C758.495483,261.147675 751.084167,261.147675 743.667969,261.147675 
	C742.207458,256.731110 743.195374,254.799088 747.719788,254.935944 
	C754.039551,255.127121 760.369446,254.985077 766.695007,254.983978 
	C770.408142,254.983337 772.872314,256.774658 772.957520,260.500183 
	C773.158447,269.289185 773.021973,278.085876 773.021973,287.780823 
	C770.695618,287.419128 768.889343,287.138275 766.724915,286.585999 
M759.419617,273.013092 
	C755.983276,273.013092 752.546936,273.013092 749.006226,273.013092 
	C749.006226,275.847260 749.006226,278.233612 749.006226,281.015869 
	C752.485779,281.015869 755.758728,281.025360 759.031616,281.013855 
	C765.445129,280.991302 766.221802,280.106232 765.712341,273.012665 
	C763.957764,273.012665 762.170410,273.012665 759.419617,273.013092 
z"/>
<path fill="#F1F1F1" opacity="1.000000" stroke="none" 
	d="
M677.283264,274.650208 
	C670.718384,274.681183 664.591125,274.681183 658.210876,274.681183 
	C657.937500,279.242645 660.018799,281.126495 663.914917,281.206329 
	C668.234863,281.294800 672.583374,280.944824 676.866455,281.348114 
	C678.279419,281.481171 679.527649,283.363251 680.851196,284.445618 
	C679.544434,285.568115 678.301086,287.558289 676.919678,287.659271 
	C671.629822,288.046112 666.288513,287.996613 660.979858,287.780914 
	C656.294495,287.590546 651.017151,281.552643 651.003601,276.781555 
	C650.989441,271.794006 651.039551,266.805817 650.977966,261.818939 
	C650.922974,257.359558 652.989197,255.003525 657.501953,254.984665 
	C663.653259,254.958939 669.804749,254.953339 675.955933,254.984573 
	C679.923401,255.004730 682.211365,256.754364 682.048401,261.024658 
	C681.959717,263.348938 681.819153,265.701233 682.067444,268.001404 
	C682.447571,271.522003 681.156067,273.716583 677.283264,274.650208 
M661.674866,268.980377 
	C666.096619,268.980377 670.518372,268.980377 674.945557,268.980377 
	C674.945557,266.069244 674.945557,263.688446 674.945557,261.376038 
	C669.093811,261.376038 663.574890,261.376038 658.055908,261.376038 
	C660.314636,263.653229 654.589844,268.478058 661.674866,268.980377 
z"/>
<path fill="#F1F1F1" opacity="1.000000" stroke="none" 
	d="
M1078.588623,283.321350 
	C1079.033813,286.691986 1077.765991,287.924927 1074.705078,287.805542 
	C1070.553589,287.643677 1066.355835,287.471130 1062.240845,287.902771 
	C1057.803345,288.368256 1054.831543,286.591827 1051.901733,283.537994 
	C1049.790649,281.337585 1048.761841,279.240417 1048.910767,276.176514 
	C1049.152832,271.198029 1048.983032,266.199341 1048.980957,261.209198 
	C1048.979370,257.147278 1051.184692,255.096954 1055.064209,255.016556 
	C1061.382812,254.885544 1067.706421,254.931168 1074.026978,254.998154 
	C1077.987915,255.040131 1079.965210,256.985931 1080.069946,261.130341 
	C1080.412842,274.695404 1080.479004,274.698517 1066.908936,274.778168 
	C1063.297729,274.799377 1059.686279,274.781372 1055.836182,274.781372 
	C1056.089355,279.111603 1058.078125,281.082764 1061.757812,281.181976 
	C1065.912231,281.294037 1070.080566,281.032227 1074.226318,281.248810 
	C1075.659180,281.323700 1077.042725,282.345581 1078.588623,283.321350 
M1064.507324,261.024597 
	C1061.750610,261.024597 1058.994019,261.024597 1056.285156,261.024597 
	C1056.285156,263.951019 1056.285156,266.324677 1056.285156,268.612579 
	C1062.106445,268.612579 1067.604248,268.612579 1073.013062,268.612579 
	C1073.013062,265.986023 1073.013062,263.725189 1073.013062,261.024597 
	C1070.351929,261.024597 1067.917114,261.024597 1064.507324,261.024597 
z"/>
<path fill="#F1F1F1" opacity="1.000000" stroke="none" 
	d="
M958.896729,287.173553 
	C958.370850,285.200531 958.219299,283.465729 958.025513,281.247375 
	C966.497681,281.247375 974.421814,281.247375 982.731934,281.247375 
	C982.820679,279.449982 982.888672,278.073029 982.965332,276.520386 
	C974.740662,274.822693 966.735413,273.170288 958.193237,271.407074 
	C958.193237,267.580658 957.522827,263.618439 958.450928,260.074921 
	C958.986755,258.029236 962.001770,255.379318 964.075867,255.215454 
	C971.518494,254.627411 979.037781,254.876556 986.523987,255.021149 
	C991.142883,255.110336 989.584412,258.124969 989.009766,260.985870 
	C981.090210,260.985870 973.322510,260.985870 965.292114,260.985870 
	C965.292114,262.927765 965.292114,264.522156 965.292114,266.580780 
	C972.037292,268.015381 979.018860,269.718536 986.088196,270.893066 
	C988.801758,271.343903 989.975281,272.214386 989.853149,274.911926 
	C989.747742,277.237762 990.472412,279.900116 989.565063,281.813995 
	C988.463928,284.136719 986.133545,287.398621 984.163330,287.522461 
	C975.900818,288.041718 967.574158,287.539734 958.896729,287.173553 
z"/>
<path fill="#F5F5F5" opacity="1.000000" stroke="none" 
	d="
M940.991577,272.978149 
	C940.979187,276.133881 940.850037,278.803070 940.980957,281.459412 
	C941.192627,285.753754 938.510132,287.536896 934.965637,287.704193 
	C928.488342,288.009918 921.981445,287.909332 915.494995,287.712891 
	C911.866028,287.602936 909.859253,285.657074 909.938477,281.697754 
	C910.078308,274.708435 910.096436,267.712311 909.953613,260.723389 
	C909.871094,256.681458 911.974060,255.067825 915.595215,255.013214 
	C921.919922,254.917831 928.248352,254.913086 934.572937,255.012543 
	C938.712158,255.077621 941.005066,257.208893 940.999390,261.500702 
	C940.994507,265.162415 940.994019,268.824127 940.991577,272.978149 
M933.992737,276.402374 
	C933.992737,271.310516 933.992737,266.218689 933.992737,261.209991 
	C927.673523,261.209991 922.062012,261.209991 916.366821,261.209991 
	C916.366821,267.952393 916.366821,274.484253 916.366821,281.202728 
	C921.389221,281.202728 926.063660,281.005768 930.711792,281.270325 
	C933.937439,281.453918 934.292419,279.844727 933.992737,276.402374 
z"/>
<path fill="#F3F3F3" opacity="1.000000" stroke="none" 
	d="
M1019.018250,274.927612 
	C1019.018250,277.202942 1019.018250,278.990509 1019.018250,281.205048 
	C1022.416931,281.205048 1025.430420,280.867584 1028.302612,281.357727 
	C1029.598022,281.578766 1030.612183,283.448883 1031.754028,284.570801 
	C1030.612427,285.646332 1029.572876,287.479462 1028.309204,287.649841 
	C1025.038086,288.090729 1021.653625,287.995361 1018.341614,287.748383 
	C1014.426453,287.456421 1011.921753,285.565887 1011.987000,281.156250 
	C1012.082886,274.673767 1012.011658,268.188782 1012.011658,262.779114 
	C1010.265991,260.872772 1008.205811,259.613098 1008.233765,258.401489 
	C1008.268188,256.906006 1010.039062,255.450455 1010.839783,253.785400 
	C1012.248230,251.615799 1013.456970,247.788666 1015.102905,247.590378 
	C1019.859375,247.017349 1018.838989,251.380157 1019.208008,254.983719 
	C1021.767395,254.983719 1024.380615,255.184509 1026.951172,254.938492 
	C1031.215576,254.530304 1032.355591,256.426056 1031.238892,260.711151 
	C1027.469238,260.711151 1023.563599,260.711151 1019.018250,260.711151 
	C1019.018250,265.590424 1019.018250,270.015167 1019.018250,274.927612 
z"/>
<path fill="#F0F0F0" opacity="1.000000" stroke="none" 
	d="
M703.932983,253.764099 
	C704.490479,251.192062 702.412415,247.569763 706.379700,247.369598 
	C711.310059,247.120819 710.591614,251.449905 710.977600,254.026917 
	C714.465637,257.624939 723.127136,250.237686 723.046326,260.885498 
	C719.013855,260.885498 715.241699,260.885498 711.113403,260.885498 
	C711.113403,267.648804 711.113403,274.046814 711.113403,281.181366 
	C713.505249,281.181366 716.095520,281.163879 718.685303,281.186768 
	C720.854492,281.205933 722.988220,280.869110 723.044373,284.342255 
	C723.097290,287.614929 721.355225,287.800049 718.971069,287.801666 
	C703.668701,287.812073 703.556702,288.707977 703.959167,273.546234 
	C704.064758,269.568665 703.975098,265.585907 703.975098,261.364685 
	C702.545349,261.126282 701.342529,260.925720 700.380859,260.765381 
	C699.039917,256.940460 700.394104,254.931076 703.932983,253.764099 
z"/>
<path fill="#EDEDED" opacity="1.000000" stroke="none" 
	d="
M791.959412,259.006653 
	C791.965820,255.017532 791.701904,251.496277 792.094055,248.049637 
	C792.286316,246.359726 793.696472,244.808411 794.555420,243.194397 
	C795.950745,244.913971 798.403320,246.548553 798.549561,248.368484 
	C799.053955,254.644623 798.754944,260.985474 798.758911,267.301666 
	C798.761658,271.751129 798.759460,276.200592 798.759460,281.174286 
	C801.736084,281.174286 804.343933,281.213593 806.949951,281.162750 
	C809.339722,281.116180 811.058105,281.334534 811.048645,284.584961 
	C811.038513,288.039276 808.934631,287.779053 806.753052,287.794189 
	C791.117126,287.902679 791.706055,288.570007 791.947876,273.467285 
	C792.022400,268.814392 791.959412,264.159332 791.959412,259.006653 
z"/>
<path fill="#F3F3F3" opacity="1.000000" stroke="none" 
	d="
M1098.979980,276.948486 
	C1098.980225,270.468140 1098.848022,264.473206 1099.092041,258.493652 
	C1099.140747,257.297607 1101.213501,255.073959 1101.359497,255.153275 
	C1105.757324,257.541901 1110.075317,253.971161 1114.290039,255.094910 
	C1115.619385,255.449341 1116.612793,257.063873 1117.759888,258.101746 
	C1116.595947,259.075012 1115.505005,260.774933 1114.255615,260.900726 
	C1107.408447,261.590210 1105.815918,263.171753 1105.819580,270.222229 
	C1105.821899,274.547485 1105.864502,278.872864 1105.846680,283.197998 
	C1105.836304,285.692841 1105.503784,287.963318 1102.135376,287.844055 
	C1099.119385,287.737274 1098.777954,285.868500 1098.953125,283.426178 
	C1099.095337,281.440125 1098.980591,279.435638 1098.979980,276.948486 
z"/>
<path fill="#EDEDED" opacity="1.000000" stroke="none" 
	d="
M1047.187988,173.076355 
	C1047.574951,172.815628 1048.136597,172.675171 1048.843384,172.751526 
	C1048.446655,173.044403 1047.904663,173.120499 1047.187988,173.076355 
z"/>
<path fill="#080808" opacity="1.000000" stroke="none" 
	d="
M182.049133,154.959900 
	C184.532822,149.176895 186.871857,143.747284 189.808273,136.931015 
	C202.572571,167.657501 214.805435,197.104736 227.467773,227.585800 
	C225.104218,226.681839 223.250763,226.466415 222.091461,225.455200 
	C206.110306,211.515289 188.548920,200.016678 169.417953,190.887527 
	C168.715469,190.552307 168.175095,189.877350 167.367554,189.200012 
	C172.244446,177.831635 177.074478,166.572479 182.049133,154.959900 
z"/>
<path fill="#050505" opacity="1.000000" stroke="none" 
	d="
M817.835571,187.910233 
	C817.097351,173.591171 816.860718,159.718781 821.548645,146.479095 
	C823.382629,141.299622 826.153442,136.036743 829.811523,132.003693 
	C837.692322,123.315178 851.598083,123.772995 858.690979,133.121521 
	C862.478943,138.114197 865.450012,144.332199 866.826843,150.439682 
	C871.721375,172.152115 872.173950,193.981552 864.859619,215.370499 
	C860.635193,227.723694 852.873535,233.105698 842.013611,231.758224 
	C833.872437,230.748093 828.539856,225.730835 824.949158,218.737701 
	C820.071106,209.237457 818.430115,198.931183 817.835571,187.910233 
z"/>
<path fill="#070707" opacity="1.000000" stroke="none" 
	d="
M1058.995850,167.986908 
	C1055.298218,168.080719 1051.600708,168.174530 1047.167480,168.284302 
	C1045.599854,168.469894 1044.767578,168.639542 1043.935425,168.809174 
	C1043.165771,168.126190 1041.708252,167.421448 1041.729126,166.763474 
	C1042.083740,155.554977 1043.326538,144.429703 1050.302856,135.130951 
	C1059.785278,122.491898 1076.096069,123.117157 1084.037598,136.822662 
	C1087.596924,142.965302 1088.995239,150.360245 1091.460205,157.938339 
	C1091.721436,160.461273 1091.896729,162.232758 1092.072021,164.004242 
	C1090.752197,164.689651 1089.473999,165.859512 1088.105347,165.976974 
	C1082.052490,166.496384 1075.973511,166.713165 1069.109741,167.047150 
	C1067.163818,167.221161 1066.012085,167.387527 1064.860474,167.553894 
	C1064.145508,167.544006 1063.430542,167.534119 1062.155029,167.524811 
	C1060.728271,167.679230 1059.862061,167.833069 1058.995850,167.986908 
z"/>
<path fill="#EDEDED" opacity="1.000000" stroke="none" 
	d="
M1092.427979,163.999390 
	C1091.896729,162.232758 1091.721436,160.461273 1091.661011,158.324310 
	C1095.480713,161.272034 1095.591797,161.936676 1092.427979,163.999390 
z"/>
<path fill="#EDEDED" opacity="1.000000" stroke="none" 
	d="
M1065.029907,167.873047 
	C1066.012085,167.387527 1067.163818,167.221161 1068.664429,167.145187 
	C1067.742065,167.554443 1066.470703,167.873337 1065.029907,167.873047 
z"/>
<path fill="#EDEDED" opacity="1.000000" stroke="none" 
	d="
M1059.188599,168.245071 
	C1059.862061,167.833069 1060.728271,167.679230 1061.826172,167.668808 
	C1061.165649,168.042557 1060.273438,168.272888 1059.188599,168.245071 
z"/>
<path fill="#EDEDED" opacity="1.000000" stroke="none" 
	d="
M1044.090820,169.071625 
	C1044.767578,168.639542 1045.599854,168.469894 1046.731567,168.438202 
	C1046.102783,168.828781 1045.174438,169.081421 1044.090820,169.071625 
z"/>
<path fill="#030303" opacity="1.000000" stroke="none" 
	d="
M872.420898,281.170135 
	C867.889038,280.676331 866.422485,278.393311 866.711853,274.354492 
	C866.994446,270.410461 866.773376,266.430359 866.773376,262.115845 
	C872.368774,262.115845 877.919250,262.115845 883.748657,262.115845 
	C883.748657,268.258972 883.748657,274.473175 883.748657,281.195892 
	C880.061157,281.195892 876.469421,281.195892 872.420898,281.170135 
z"/>
<path fill="#050505" opacity="1.000000" stroke="none" 
	d="
M759.901367,273.012878 
	C762.170410,273.012665 763.957764,273.012665 765.712341,273.012665 
	C766.221802,280.106232 765.445129,280.991302 759.031616,281.013855 
	C755.758728,281.025360 752.485779,281.015869 749.006226,281.015869 
	C749.006226,278.233612 749.006226,275.847260 749.006226,273.013092 
	C752.546936,273.013092 755.983276,273.013092 759.901367,273.012878 
z"/>
<path fill="#050505" opacity="1.000000" stroke="none" 
	d="
M661.195312,268.978882 
	C654.589844,268.478058 660.314636,263.653229 658.055908,261.376038 
	C663.574890,261.376038 669.093811,261.376038 674.945557,261.376038 
	C674.945557,263.688446 674.945557,266.069244 674.945557,268.980377 
	C670.518372,268.980377 666.096619,268.980377 661.195312,268.978882 
z"/>
<path fill="#020202" opacity="1.000000" stroke="none" 
	d="
M1064.994873,261.024597 
	C1067.917114,261.024597 1070.351929,261.024597 1073.013062,261.024597 
	C1073.013062,263.725189 1073.013062,265.986023 1073.013062,268.612579 
	C1067.604248,268.612579 1062.106445,268.612579 1056.285156,268.612579 
	C1056.285156,266.324677 1056.285156,263.951019 1056.285156,261.024597 
	C1058.994019,261.024597 1061.750610,261.024597 1064.994873,261.024597 
z"/>
<path fill="#020202" opacity="1.000000" stroke="none" 
	d="
M933.992676,276.889709 
	C934.292419,279.844727 933.937439,281.453918 930.711792,281.270325 
	C926.063660,281.005768 921.389221,281.202728 916.366821,281.202728 
	C916.366821,274.484253 916.366821,267.952393 916.366821,261.209991 
	C922.062012,261.209991 927.673523,261.209991 933.992737,261.209991 
	C933.992737,266.218689 933.992737,271.310516 933.992676,276.889709 
z"/>
</svg>